<svg width="784" height="150" viewBox="0 0 784 150" fill="none" xmlns="http://www.w3.org/2000/svg"><g clip-path="url(#clip0_3101_131)"><path d="M189.31 61.723v52.642h-21.637v-71.23h43.843v18.588H189.31zm79.572 26.392l15.231 10.5c-6.833 11.209-18.648 17.452-32.456 17.452-20.213 0-37.438-15.892-37.438-37.317 0-21.567 17.225-37.317 36.869-37.317 23.345 0 37.153 18.445 35.73 43.135h-52.527c2.135 8.796 9.11 13.905 17.366 13.905 8.399 0 13.097-3.973 17.225-10.358zm-33.879-17.027h31.316c-.996-6.101-5.836-12.203-15.088-12.203-7.26 0-13.666 4.54-16.228 12.203zm136.648-27.953v71.23h-21.637v-8.514c-4.27 5.534-12.384 10.216-22.206 10.216-19.503 0-35.303-16.033-35.303-37.317 0-21.283 15.8-37.317 35.303-37.317 9.822 0 17.936 4.681 22.206 10.215v-8.513h21.637zM332.363 97.48c10.391 0 18.221-8.089 18.221-18.73s-7.83-18.73-18.221-18.73C321.829 60.02 314 68.11 314 78.75s7.829 18.73 18.363 18.73zM407.092 0v114.365h-21.637V0h21.637zm6.262 96.203l18.363-5.534c1.708 5.959 6.121 9.223 11.245 9.223 4.271 0 7.829-2.27 7.829-6.67 0-11.067-33.736-2.553-33.736-28.66 0-12.346 10.676-23.13 26.477-23.13 13.096 0 23.06 7.095 26.334 18.163l-18.647 4.681c-1.139-4.398-3.844-6.81-7.972-6.81-3.559 0-6.406 2.412-6.406 5.818 0 10.5 34.022 2.128 34.022 28.804 0 14.615-13.808 23.979-28.185 23.979-13.239 0-26.193-7.236-29.324-19.864zm87.541-44.555c4.128-5.534 12.242-10.215 22.065-10.215 19.502 0 35.302 16.034 35.302 37.316 0 21.285-15.8 37.318-35.302 37.318-9.823 0-17.937-4.682-22.065-10.216v44.129h-21.637V43.135h21.637v8.513zm17.652 8.372c-10.534 0-18.363 8.089-18.363 18.73s7.829 18.73 18.363 18.73c10.391 0 18.22-8.089 18.22-18.73s-7.829-18.73-18.22-18.73zm124.408-16.885v71.23h-21.638v-8.514c-4.27 5.534-12.384 10.216-22.206 10.216-19.502 0-35.303-16.033-35.303-37.317 0-21.283 15.801-37.317 35.303-37.317 9.822 0 17.936 4.681 22.206 10.215v-8.513h21.638zM603.666 97.48c10.392 0 18.221-8.089 18.221-18.73s-7.829-18.73-18.221-18.73c-10.534 0-18.363 8.089-18.363 18.73s7.829 18.73 18.363 18.73zm101.207-53.21v21c-3.559-2.98-7.687-4.824-13.666-4.824-9.822 0-18.505 7.236-18.505 18.303 0 11.068 8.683 18.304 18.505 18.304 5.979 0 10.107-1.986 13.808-4.823v20.999c-4.555 1.845-9.253 2.839-14.947 2.839-20.498 0-38.15-15.751-38.15-37.319 0-21.566 17.652-37.316 38.15-37.316 5.694 0 10.392.992 14.805 2.837zm60.779 43.845l15.231 10.5c-6.833 11.209-18.648 17.452-32.456 17.452-20.213 0-37.437-15.892-37.437-37.317 0-21.567 17.224-37.317 36.868-37.317 23.345 0 37.153 18.445 35.73 43.135h-52.527c2.135 8.796 9.11 13.905 17.366 13.905 8.399 0 13.097-3.973 17.225-10.358zm-33.879-17.027h31.316c-.996-6.101-5.836-12.203-15.088-12.203-7.26 0-13.666 4.54-16.228 12.203z" fill="#fff"/><g clip-path="url(#clip1_3101_131)"><path d="M128.517 3.384H72.914v53.612L56.47 3.384H.313L34.31 114.232h56.16L73.466 58.794c30.453-.296 55.051-24.984 55.051-55.41z" fill="#fff"/></g></g><defs><clipPath id="clip0_3101_131"><path fill="#fff" d="M0 0h784v150H0z"/></clipPath><clipPath id="clip1_3101_131"><path fill="#fff" transform="translate(.312 3.384)" d="M0 0h128.205v110.848H0z"/></clipPath></defs></svg>