<svg width="1100" height="840" viewBox="0 0 1100 840" fill="none" xmlns="http://www.w3.org/2000/svg"><path d="M616.885-11.073l.949-.315-.228-.685h-.721v1zm192.352 578.888l-.949.315 1.949-.315h-1zM2.154-11.073v-1H.774l.43 1.312.95-.312zM403.123 1211.22l-.95.31.226.69h.724v-1zm619.907 0v1h1.38l-.44-1.32-.94.32zM818.512 595.731l-.014-1-1.365.019.43 1.296.949-.315zM1424.87-11.071h1v-1h-1v1zm-615.633 0v-1h-1v1h1zm-193.301.313L808.288 568.13l1.898-.63L617.834-11.388l-1.898.63zm-613.782.685h614.731v-2H2.154v2zm401.92 1220.983L3.104-11.385l-1.9.624L402.173 1211.53l1.901-.62zm618.956-.69H403.123v2h619.907v-2zM817.563 596.046l204.517 615.484 1.89-.63-204.509-615.484-1.898.63zM1423.87-11.071c0 330.207-264.1 600.983-605.372 605.802l.029 2c342.353-4.834 607.343-276.49 607.343-607.802h-2zm-614.633 1h615.633v-2H809.237v2zm1 577.886V-11.071h-2v578.886h2z" fill="#3f4242"/></svg>